<svg width="1920" height="497" viewBox="0 0 1920 497" fill="none" xmlns="http://www.w3.org/2000/svg">
<rect width="1920" height="497" fill="url(#paint0_linear_225_2046)"/>
<path d="M774.136 277.359V263.265H777.782V264.586H775.732V276.033H777.782V277.359H774.136ZM790.84 268.47V269.58H785.199V270.751H789.238V273.912H781.094V275.066H789.641V276.193H779.641V272.884H787.779V271.834H779.614V270.751H783.73V269.58H778.111V268.47H790.84ZM778.73 266.801C781.415 266.652 783.304 265.829 783.603 264.641H779.376V263.508H783.735V262.271H785.194V263.508H789.575V264.641H785.321C785.614 265.829 787.503 266.652 790.21 266.801L789.763 267.917C787.326 267.74 785.337 267.033 784.465 265.807C783.592 267.033 781.603 267.74 779.155 267.917L778.73 266.801ZM796.461 265.89C796.45 268.448 797.991 271.022 800.162 271.978L799.267 273.16C797.659 272.392 796.389 270.818 795.731 268.901C795.085 270.95 793.798 272.646 792.124 273.459L791.206 272.221C793.411 271.238 794.958 268.564 794.969 265.89V263.492H796.461V265.89ZM801.427 276.354V262.326H802.919V276.354H801.427ZM818.857 262.326V265.254H820.884V266.486H818.857V269.409H817.371V262.326H818.857ZM808.067 265.939C808.056 264.088 809.625 262.818 811.746 262.807C813.868 262.818 815.42 264.088 815.42 265.939C815.42 267.773 813.868 269.061 811.746 269.061C809.625 269.061 808.056 267.773 808.067 265.939ZM809.514 265.939C809.503 267.083 810.454 267.873 811.746 267.873C813.028 267.873 813.978 267.083 813.978 265.939C813.978 264.801 813.028 264.028 811.746 264.033C810.454 264.028 809.503 264.801 809.514 265.939ZM809.802 271.21V270.039H818.857V273.586H811.293V274.961H819.332V276.149H809.835V272.486H817.382V271.21H809.802ZM832.698 262.337V270.635H831.212V262.337H832.698ZM821.792 264.354V263.171H828.223V267.099H823.267V268.796C825.72 268.801 827.516 268.729 829.643 268.381L829.831 269.591C827.544 269.95 825.637 270.022 822.986 270.022H821.82V265.95H826.753V264.354H821.792ZM823.494 276.149V271.343H832.698V276.149H823.494ZM824.958 274.945H831.24V272.536H824.958V274.945ZM837.81 263.26V277.354H834.164V276.033H836.214V264.586H834.164V263.26H837.81ZM853.871 262.906V267.707H849.849V269.337H855.501V270.536H842.738V269.337H848.373V267.707H844.362V262.906H853.871ZM844.152 273.039V271.862H853.931V276.326H852.44V273.039H844.152ZM845.815 266.519H852.407V264.077H845.815V266.519ZM860.972 264.818C860.972 266.58 862.237 268.309 864.347 269.028L863.591 270.182C862.016 269.646 860.856 268.525 860.248 267.144C859.635 268.68 858.408 269.917 856.74 270.503L855.972 269.326C858.126 268.591 859.469 266.724 859.469 264.829V264.431H856.43V263.232H863.988V264.431H860.972V264.818ZM858.143 272.602V271.398H867.635V276.326H866.154V272.602H858.143ZM863.557 267.116V265.89H866.154V262.326H867.635V270.696H866.154V267.116H863.557ZM875.565 263.166C878.504 263.171 880.741 264.724 880.741 267.077C880.741 269.442 878.504 270.994 875.565 270.983C872.636 270.994 870.404 269.442 870.404 267.077C870.404 264.724 872.636 263.171 875.565 263.166ZM869.194 274.514V273.287H882.006V274.514H869.194ZM871.83 267.077C871.824 268.713 873.421 269.768 875.565 269.768C877.708 269.768 879.294 268.713 879.294 267.077C879.294 265.459 877.708 264.365 875.565 264.376C873.421 264.365 871.824 265.459 871.83 267.077ZM895.235 273.414V274.646H882.422V273.414H888.058V270.95H883.98V266.497H892.201V264.53H883.953V263.32H893.666V267.691H885.456V269.735H893.992V270.95H889.527V273.414H895.235ZM910.625 262.326V270.657H909.145V267.116H906.531V265.895H909.145V262.326H910.625ZM898.962 269.398C901.128 268.635 902.46 266.746 902.46 264.812V264.503H899.421V263.293H906.979V264.503H903.962V264.801C903.962 266.575 905.228 268.298 907.338 269.011L906.581 270.193C905.007 269.646 903.852 268.525 903.244 267.144C902.631 268.707 901.404 269.961 899.73 270.575L898.962 269.398ZM901.205 273.691C901.194 272.022 902.996 271.05 905.935 271.05C908.868 271.05 910.664 272.022 910.67 273.691C910.664 275.354 908.868 276.315 905.935 276.326C902.996 276.315 901.194 275.354 901.205 273.691ZM902.675 273.691C902.664 274.63 903.885 275.171 905.935 275.16C907.979 275.171 909.194 274.63 909.2 273.691C909.194 272.74 907.979 272.199 905.935 272.199C903.885 272.199 902.664 272.74 902.675 273.691ZM924.997 273.365V274.591H912.185V273.365H917.82V270.492H913.644V263.282H915.13V265.696H922.003V263.282H923.478V270.492H919.29V273.365H924.997ZM915.13 269.287H922.003V266.89H915.13V269.287ZM938.203 268.751V269.89H925.391V268.751H938.203ZM926.91 271.939V270.867H936.629V273.956H928.408V275.11H937.065V276.16H926.927V272.967H935.159V271.939H926.91ZM926.999 263.735V262.691H936.59V265.718H928.507V266.785H936.833V267.829H927.037V264.74H935.109V263.735H926.999ZM953.583 262.326V276.326H952.091V262.326H953.583ZM942.08 272.575C945.804 270.807 947.616 268.282 947.909 265.017H942.76V263.834H949.423C949.412 267.928 947.671 271.481 942.865 273.773L942.08 272.575ZM966.789 262.326V269.84H965.303V262.326H966.789ZM955.457 266.227C955.457 264.293 957.037 262.961 959.187 262.972C961.33 262.961 962.905 264.293 962.905 266.227C962.905 268.133 961.33 269.464 959.187 269.459C957.037 269.464 955.457 268.133 955.457 266.227ZM956.91 266.227C956.899 267.425 957.855 268.232 959.187 268.238C960.502 268.232 961.452 267.425 961.452 266.227C961.452 265.022 960.502 264.21 959.187 264.221C957.855 264.21 956.899 265.022 956.91 266.227ZM957.623 276.149V270.519H959.076V272.088H965.314V270.519H966.789V276.149H957.623ZM959.076 274.939H965.314V273.26H959.076V274.939ZM979.404 262.337V266.84H981.431V268.077H979.404V272.818H977.918V262.337H979.404ZM968.42 265.166V263.972H971.857V262.331H973.332V263.972H976.752V265.166H968.42ZM969.183 268.492C969.177 266.884 970.558 265.84 972.592 265.84C974.597 265.84 975.978 266.884 975.984 268.492C975.978 270.072 974.597 271.105 972.592 271.105C970.558 271.105 969.177 270.072 969.183 268.492ZM970.531 276.039V271.983H972.006V274.823H980V276.039H970.531ZM970.614 268.492C970.603 269.398 971.398 269.956 972.592 269.95C973.774 269.956 974.569 269.398 974.581 268.492C974.569 267.564 973.774 266.989 972.592 266.989C971.398 266.989 970.603 267.564 970.614 268.492ZM997.728 269.657V270.851H992.176V273.425H990.706V270.851H984.916V269.657H997.728ZM986.513 276.039V272.199H987.982V274.823H996.308V276.039H986.513ZM986.607 268.42V262.773H988.082V264.459H994.568V262.773H996.043V268.42H986.607ZM988.082 267.232H994.568V265.58H988.082V267.232ZM1010.95 268.066V269.254H998.166V268.066H1010.95ZM999.686 271.497V270.354H1009.31V273.746H1001.17V275H1009.71V276.177H999.713V272.652H1007.85V271.497H999.686ZM999.829 267.044V262.74H1009.29V263.928H1001.31V265.851H1009.42V267.044H999.829ZM1014.85 263.989C1014.85 267.116 1014.46 270.365 1012.5 273.099L1011.34 272.453C1012.98 270.265 1013.47 267.834 1013.57 265.199H1011.68V263.989H1014.85ZM1014.49 273.287C1016.29 270.845 1016.63 267.912 1016.69 265.199H1015.29V263.989H1017.97C1017.97 265.171 1017.94 266.448 1017.79 267.746H1019.43V262.685H1020.84V275.646H1019.43V268.956H1017.62C1017.31 270.696 1016.72 272.425 1015.64 273.95L1014.49 273.287ZM1022.08 276.326V262.326H1023.5V276.326H1022.08ZM1030.11 263.5V266.797H1032.08V263.5H1033.89V267.406H1035.32V262.453H1037.19V275.812H1035.32V269.031H1033.89V273.062H1028.24V263.5H1030.11ZM1030.11 271.438H1032.08V268.375H1030.11V271.438ZM1038.25 276.438V262.219H1040.16V276.438H1038.25ZM1048.36 263.391V265.016H1043.64V267.359H1048.15V268.922H1043.64V271.609C1045.67 271.586 1047.33 271.5 1049.23 271.203L1049.42 272.812C1047.25 273.141 1045.31 273.203 1042.83 273.203H1041.62V263.391H1048.36ZM1050.28 276.438V262.219H1052.28V267.609H1054.37V269.281H1052.28V276.438H1050.28ZM1066.29 262.219V276.469H1064.32V268.844H1061.68V273.094H1054.82V263.312H1056.8V266.766H1059.72V263.312H1061.68V267.234H1064.32V262.219H1066.29ZM1056.8 271.5H1059.72V268.328H1056.8V271.5ZM1079.5 262.234V272.609H1077.52V267.516H1075.19V265.906H1077.52V262.234H1079.5ZM1067.44 269.406C1069.79 268.672 1070.85 266.82 1070.86 265V264.781H1068V263.188H1075.72V264.781H1072.89V265.016C1072.88 266.664 1073.9 268.422 1076.16 269.156L1075.17 270.734C1073.6 270.219 1072.52 269.188 1071.9 267.914C1071.27 269.328 1070.13 270.477 1068.45 271.031L1067.44 269.406ZM1070.06 276.188V271.703H1072.06V274.594H1079.84V276.188H1070.06ZM1096.77 268.281V269.734H1091.3V270.625H1095.22V274.094H1087.3V274.875H1095.6V276.344H1085.35V272.75H1093.25V272.047H1085.33V270.625H1089.32V269.734H1083.86V268.281H1096.77ZM1084.36 266.422C1087.21 266.297 1088.65 265.617 1089.07 264.797H1085.08V263.328H1089.32V262.203H1091.28V263.328H1095.55V264.797H1091.53C1091.93 265.617 1093.39 266.297 1096.25 266.422L1095.67 267.891C1093.03 267.758 1091.2 267.094 1090.3 266.023C1089.4 267.094 1087.57 267.758 1084.91 267.891L1084.36 266.422ZM1102.59 265.438C1102.58 268.047 1103.77 270.664 1106.18 271.688L1105.01 273.281C1103.39 272.547 1102.26 271.125 1101.61 269.367C1100.97 271.289 1099.81 272.836 1098.08 273.625L1096.87 271.969C1099.36 270.922 1100.57 268.195 1100.58 265.438V263.312H1102.59V265.438ZM1106.95 276.469V262.219H1108.97V276.469H1106.95ZM1125.36 262.219V270.656H1123.38V267.297H1121.16V265.688H1123.38V262.219H1125.36ZM1113.28 269.094C1115.61 268.312 1116.67 266.453 1116.72 264.672H1113.86V263.078H1121.58V264.672H1118.75C1118.79 266.328 1119.8 268 1122.02 268.734L1121.03 270.297C1119.47 269.789 1118.38 268.758 1117.77 267.484C1117.14 268.93 1116 270.094 1114.31 270.672L1113.28 269.094ZM1115.61 273.719C1115.61 271.992 1117.47 270.977 1120.5 270.969C1123.54 270.977 1125.4 271.992 1125.41 273.719C1125.4 275.445 1123.54 276.453 1120.5 276.453C1117.47 276.453 1115.61 275.445 1115.61 273.719ZM1117.59 273.719C1117.59 274.531 1118.62 274.938 1120.5 274.938C1122.39 274.938 1123.41 274.531 1123.42 273.719C1123.41 272.898 1122.39 272.492 1120.5 272.5C1118.62 272.492 1117.59 272.898 1117.59 273.719ZM1139.62 273.156V274.781H1126.6V273.156H1132.09V270.531H1127.98V263.125H1129.98V265.328H1136.18V263.125H1138.17V270.531H1134.07V273.156H1139.62ZM1129.98 268.938H1136.18V266.922H1129.98V268.938ZM1150.62 263.215V268.978H1143.96V263.215H1150.62ZM1144.88 275.144C1147.44 274.89 1149.44 273.608 1149.52 272.354H1145.46V271.227H1149.56V269.928H1151.04V271.227H1155.15V272.354H1151.06C1151.15 273.58 1153.1 274.851 1155.66 275.144L1155.15 276.287C1152.96 276.022 1151.15 275.077 1150.3 273.845C1149.44 275.094 1147.61 276.017 1145.4 276.287L1144.88 275.144ZM1145.42 267.807H1149.16V264.398H1145.42V267.807ZM1153.36 270.331V262.326H1154.83V270.331H1153.36ZM715.402 286.337V294.547H713.91V293.873H711.181V292.939H713.91V286.337H715.402ZM703.717 291.503C706.429 291.508 709.855 291.481 712.871 291.166L712.96 292.116C711.634 292.298 710.264 292.409 708.921 292.481V294.58H707.457V292.536C706.197 292.575 704.982 292.575 703.888 292.569L703.717 291.503ZM704.761 288.685C704.761 287.403 706.148 286.58 708.269 286.58C710.352 286.58 711.75 287.403 711.761 288.685C711.75 289.994 710.352 290.779 708.269 290.779C706.148 290.779 704.761 289.994 704.761 288.685ZM705.816 296.055V295.017H715.402V298.039H707.33V299.116H715.822V300.193H705.871V297.044H713.927V296.055H705.816ZM706.164 288.685C706.153 289.354 706.976 289.785 708.269 289.785C709.54 289.785 710.363 289.354 710.363 288.685C710.363 288.017 709.54 287.58 708.269 287.58C706.976 287.58 706.153 288.017 706.164 288.685ZM731.428 287.21V288.442C731.422 289.762 731.422 291.204 731.041 293.204H733.052V294.414H727.373V300.348H725.886V294.414H720.29V293.204H729.533C729.953 291.21 729.953 289.746 729.953 288.442V288.414H721.842V287.21H731.428ZM746.28 293.243V294.442H733.518V293.243H739.159V291.702H735.109V286.895H744.722V288.088H736.59V290.481H744.849V291.702H740.634V293.243H746.28ZM734.932 296.867V295.674H744.728V300.409H743.264V296.867H734.932ZM759.558 297.414V298.646H746.746V297.414H750.243V294.934H748.304V290.481H756.525V288.53H748.276V287.32H757.989V291.691H749.779V293.718H758.315V294.934H756.193V297.414H759.558ZM751.685 297.414H754.735V294.934H751.685V297.414ZM763.761 299L763.755 297.751L767.678 293.79C768.921 292.503 769.54 291.79 769.545 290.796C769.54 289.68 768.634 288.972 767.446 288.972C766.192 288.972 765.391 289.762 765.391 290.972H763.755C763.75 288.901 765.324 287.53 767.479 287.53C769.661 287.53 771.17 288.912 771.181 290.746C771.17 292.011 770.573 293.022 768.452 295.105L766.153 297.442V297.525H771.363V299H763.761ZM774.71 297.906L773.456 302.227H772.13L772.964 297.906H774.71ZM780.112 287.53C782.184 287.547 784.366 288.796 784.372 292.939C784.372 296.906 782.665 299.155 779.952 299.155C777.869 299.155 776.411 297.867 776.145 296.033H777.841C778.079 296.983 778.808 297.652 779.952 297.652C781.692 297.652 782.72 296.127 782.731 293.541H782.593C781.98 294.503 780.919 295.077 779.698 295.077C777.67 295.077 776.046 293.525 776.046 291.365C776.046 289.204 777.648 287.514 780.112 287.53ZM777.72 291.337C777.725 292.646 778.703 293.68 780.079 293.68C781.438 293.68 782.499 292.564 782.499 291.315C782.499 290.088 781.493 288.972 780.112 288.972C778.742 288.972 777.709 290.033 777.72 291.337ZM789.52 299.182C786.906 299.182 785.365 297.055 785.37 293.348C785.37 289.663 786.923 287.53 789.52 287.53C792.122 287.53 793.674 289.669 793.674 293.348C793.674 297.055 792.138 299.182 789.52 299.182ZM787.083 293.348C787.078 296.171 787.995 297.702 789.52 297.702C791.05 297.702 791.962 296.171 791.962 293.348C791.962 290.53 791.039 288.994 789.52 288.994C788.006 288.994 787.083 290.53 787.083 293.348ZM798.795 299.182C796.181 299.182 794.64 297.055 794.645 293.348C794.645 289.663 796.198 287.53 798.795 287.53C801.397 287.53 802.949 289.669 802.949 293.348C802.949 297.055 801.413 299.182 798.795 299.182ZM796.358 293.348C796.353 296.171 797.27 297.702 798.795 297.702C800.325 297.702 801.237 296.171 801.237 293.348C801.237 290.53 800.314 288.994 798.795 288.994C797.281 288.994 796.358 290.53 796.358 293.348ZM815.302 286.337V296.956H813.81V295.613H810.992V294.564H813.81V286.337H815.302ZM803.583 292.729C806.175 292.713 809.666 292.685 812.65 292.309L812.749 293.381C811.545 293.58 810.291 293.707 809.053 293.785V296.519H807.572V293.867C806.213 293.917 804.909 293.928 803.771 293.923L803.583 292.729ZM804.677 289.337C804.677 287.862 806.092 286.873 808.169 286.873C810.213 286.873 811.633 287.862 811.644 289.337C811.633 290.834 810.213 291.779 808.169 291.779C806.092 291.779 804.677 290.834 804.677 289.337ZM805.523 300.039V295.917H807.003V298.823H815.633V300.039H805.523ZM806.086 289.337C806.081 290.171 806.926 290.691 808.169 290.691C809.362 290.691 810.219 290.171 810.23 289.337C810.219 288.508 809.362 287.972 808.169 287.978C806.926 287.972 806.081 288.508 806.086 289.337ZM827.726 299.21L826.72 298.227L830.179 294.768H821.516V293.331H830.179L826.72 289.878L827.726 288.89L832.886 294.05L827.726 299.21ZM841.928 287.53C844 287.547 846.182 288.796 846.188 292.939C846.188 296.906 844.48 299.155 841.768 299.155C839.685 299.155 838.226 297.867 837.961 296.033H839.657C839.895 296.983 840.624 297.652 841.768 297.652C843.508 297.652 844.536 296.127 844.547 293.541H844.408C843.795 294.503 842.734 295.077 841.513 295.077C839.486 295.077 837.862 293.525 837.862 291.365C837.862 289.204 839.464 287.514 841.928 287.53ZM839.536 291.337C839.541 292.646 840.519 293.68 841.895 293.68C843.254 293.68 844.315 292.564 844.315 291.315C844.315 290.088 843.309 288.972 841.928 288.972C840.558 288.972 839.525 290.033 839.536 291.337ZM851.335 299.182C848.722 299.182 847.181 297.055 847.186 293.348C847.186 289.663 848.739 287.53 851.335 287.53C853.937 287.53 855.49 289.669 855.49 293.348C855.49 297.055 853.954 299.182 851.335 299.182ZM848.899 293.348C848.893 296.171 849.81 297.702 851.335 297.702C852.866 297.702 853.777 296.171 853.777 293.348C853.777 290.53 852.855 288.994 851.335 288.994C849.821 288.994 848.899 290.53 848.899 293.348ZM860.61 299.182C857.997 299.182 856.456 297.055 856.461 293.348C856.461 289.663 858.014 287.53 860.61 287.53C863.212 287.53 864.765 289.669 864.765 293.348C864.765 297.055 863.229 299.182 860.61 299.182ZM858.174 293.348C858.168 296.171 859.085 297.702 860.61 297.702C862.141 297.702 863.052 296.171 863.052 293.348C863.052 290.53 862.13 288.994 860.61 288.994C859.096 288.994 858.174 290.53 858.174 293.348ZM877.117 286.337V296.956H875.626V295.613H872.808V294.564H875.626V286.337H877.117ZM865.399 292.729C867.99 292.713 871.482 292.685 874.465 292.309L874.565 293.381C873.36 293.58 872.106 293.707 870.869 293.785V296.519H869.388V293.867C868.029 293.917 866.725 293.928 865.587 293.923L865.399 292.729ZM866.493 289.337C866.493 287.862 867.907 286.873 869.985 286.873C872.029 286.873 873.449 287.862 873.46 289.337C873.449 290.834 872.029 291.779 869.985 291.779C867.907 291.779 866.493 290.834 866.493 289.337ZM867.338 300.039V295.917H868.819V298.823H877.449V300.039H867.338ZM867.902 289.337C867.896 290.171 868.742 290.691 869.985 290.691C871.178 290.691 872.034 290.171 872.045 289.337C872.034 288.508 871.178 287.972 869.985 287.978C868.742 287.972 867.896 288.508 867.902 289.337ZM885.069 287.166C888.008 287.171 890.246 288.724 890.246 291.077C890.246 293.442 888.008 294.994 885.069 294.983C882.141 294.994 879.909 293.442 879.909 291.077C879.909 288.724 882.141 287.171 885.069 287.166ZM878.699 298.514V297.287H891.511V298.514H878.699ZM881.334 291.077C881.329 292.713 882.926 293.768 885.069 293.768C887.213 293.768 888.798 292.713 888.798 291.077C888.798 289.459 887.213 288.365 885.069 288.376C882.926 288.365 881.329 289.459 881.334 291.077ZM904.739 297.414V298.646H891.927V297.414H897.563V294.95H893.485V290.497H901.706V288.53H893.458V287.32H903.17V291.691H894.96V293.735H903.496V294.95H899.032V297.414H904.739ZM913.312 289.89C913.301 292.365 914.749 294.901 916.826 295.917L915.915 297.105C914.384 296.315 913.202 294.746 912.589 292.878C911.964 294.867 910.738 296.541 909.147 297.37L908.224 296.177C910.373 295.138 911.826 292.459 911.837 289.89V287.492H913.312V289.89ZM917.881 300.326V286.326H919.368V291.912H921.611V293.177H919.368V300.326H917.881ZM934.452 293.155V294.359H921.69V293.155H924.75V291.276C923.668 290.84 923.054 290.133 923.054 289.204C923.054 287.541 924.982 286.575 928.06 286.569C931.126 286.575 933.054 287.541 933.054 289.204C933.054 290.133 932.441 290.84 931.358 291.282V293.155H934.452ZM923.198 297.801C923.198 296.199 925.016 295.309 928.054 295.32C931.071 295.309 932.883 296.199 932.894 297.801C932.883 299.414 931.071 300.298 928.054 300.298C925.016 300.298 923.198 299.414 923.198 297.801ZM924.596 289.204C924.585 290.144 925.883 290.663 928.06 290.663C930.226 290.663 931.535 290.144 931.535 289.204C931.535 288.265 930.226 287.724 928.06 287.724C925.883 287.724 924.585 288.265 924.596 289.204ZM924.706 297.801C924.695 298.674 925.916 299.171 928.054 299.16C930.17 299.171 931.402 298.674 931.413 297.801C931.402 296.934 930.17 296.459 928.054 296.448C925.916 296.459 924.695 296.934 924.706 297.801ZM926.242 293.155H929.883V291.669C929.336 291.757 928.723 291.801 928.06 291.801C927.397 291.801 926.789 291.757 926.242 291.674V293.155ZM945.918 286.282V289.564H947.956V290.773H945.918V293.978H944.432V286.282H945.918ZM934.934 288.68V287.519H938.371V286.199H939.846V287.519H943.266V288.68H934.934ZM935.697 291.508C935.691 290.099 937.045 289.215 939.106 289.215C941.155 289.215 942.492 290.099 942.498 291.508C942.492 292.939 941.155 293.801 939.106 293.801C937.045 293.801 935.691 292.939 935.697 291.508ZM936.863 295.74V294.646H945.918V297.895H938.354V299.066H946.393V300.193H936.896V296.84H944.443V295.74H936.863ZM937.128 291.508C937.117 292.271 937.896 292.713 939.106 292.718C940.305 292.713 941.084 292.271 941.095 291.508C941.084 290.757 940.305 290.287 939.106 290.287C937.896 290.287 937.117 290.757 937.128 291.508ZM958.612 287.558C958.612 289.42 960.883 291.166 963.64 291.536L963.049 292.746C960.762 292.381 958.756 291.188 957.844 289.541C956.933 291.199 954.927 292.381 952.651 292.746L952.054 291.536C954.8 291.166 957.065 289.442 957.065 287.558V286.796H958.612V287.558ZM951.452 295.348V294.122H964.215V295.348H958.529V300.326H957.071V295.348H951.452ZM972.837 295.575C972.837 296.779 973.44 298.05 974.705 298.812C975.987 297.983 976.622 296.646 976.622 295.575V294.906H978.08V295.575C978.069 297.033 979.031 298.436 980.854 299.039L980.119 300.122C978.738 299.646 977.799 298.713 977.312 297.564C976.871 298.685 976.031 299.718 974.749 300.249C973.401 299.746 972.55 298.757 972.119 297.608C971.616 298.713 970.688 299.641 969.368 300.122L968.627 299.039C970.423 298.387 971.395 296.934 971.406 295.575V294.906H972.837V295.575ZM968.268 290.42C968.268 288.464 969.848 287.116 971.998 287.116C974.141 287.116 975.716 288.464 975.716 290.42C975.716 292.359 974.141 293.707 971.998 293.707C969.848 293.707 968.268 292.359 968.268 290.42ZM969.721 290.42C969.71 291.641 970.666 292.47 971.998 292.475C973.312 292.47 974.263 291.641 974.263 290.42C974.263 289.193 973.312 288.365 971.998 288.376C970.666 288.365 969.71 289.193 969.721 290.42ZM978.114 294.304V286.337H979.6V294.304H978.114ZM992.546 290.425V291.613H982.9V286.834H984.369V290.425H992.546ZM981.193 294.564V293.376H994.005V294.564H981.193ZM982.795 299.994V295.895H984.27V298.785H992.635V299.994H982.795ZM1002.31 299.156C999.823 299.156 998.042 297.789 997.995 295.812H1000.37C1000.41 296.656 1001.23 297.211 1002.32 297.219C1003.45 297.211 1004.25 296.586 1004.25 295.672C1004.25 294.75 1003.43 294.102 1002.1 294.094H1001.06V292.359H1002.1C1003.22 292.359 1004 291.75 1004 290.859C1004 289.992 1003.34 289.398 1002.34 289.406C1001.34 289.398 1000.52 289.961 1000.48 290.828H998.23C998.269 288.883 1000.02 287.531 1002.34 287.531C1004.7 287.531 1006.27 288.93 1006.26 290.719C1006.27 291.984 1005.39 292.883 1004.12 293.109V293.203C1005.78 293.406 1006.7 294.414 1006.68 295.828C1006.7 297.766 1004.86 299.156 1002.31 299.156ZM1019.54 286.219V300.438H1017.61V293.203H1016.32V299.812H1014.46V286.594H1016.32V291.609H1017.61V286.219H1019.54ZM1007.1 296.141C1010 294.438 1011.25 292.352 1011.51 289.562H1007.82V287.969H1013.46C1013.45 291.938 1012.26 295.188 1008.25 297.516L1007.1 296.141ZM1032.55 286.234V294.469H1030.55V294.016H1027.97V292.812H1030.55V286.234H1032.55ZM1020.5 291.234C1023.25 291.242 1026.65 291.227 1029.7 290.938L1029.8 292.172C1028.54 292.336 1027.25 292.445 1025.98 292.516V294.5H1024.01V292.586C1022.85 292.617 1021.73 292.617 1020.7 292.609L1020.5 291.234ZM1021.47 288.562C1021.47 287.281 1022.9 286.43 1025.08 286.422C1027.19 286.43 1028.65 287.281 1028.65 288.562C1028.65 289.883 1027.19 290.695 1025.08 290.688C1022.9 290.695 1021.47 289.883 1021.47 288.562ZM1022.53 296.234V294.891H1032.55V298.219H1024.55V298.953H1032.87V300.344H1022.59V296.938H1030.56V296.234H1022.53ZM1023.36 288.562C1023.34 289.086 1024 289.383 1025.08 289.391C1026.12 289.383 1026.79 289.086 1026.8 288.562C1026.79 288.039 1026.12 287.727 1025.08 287.734C1024 287.727 1023.34 288.039 1023.36 288.562ZM1037.72 299L1042.49 289.688V289.609H1036.94V287.688H1044.92V289.641L1040.16 299H1037.72ZM1050.03 299.156C1047.19 299.156 1045.48 297.047 1045.48 293.344C1045.48 289.648 1047.21 287.531 1050.03 287.531C1052.85 287.531 1054.57 289.648 1054.57 293.344C1054.57 297.062 1052.85 299.156 1050.03 299.156ZM1047.89 293.344C1047.87 295.953 1048.71 297.219 1050.03 297.219C1051.34 297.219 1052.17 295.953 1052.17 293.344C1052.17 290.758 1051.33 289.461 1050.03 289.453C1048.72 289.461 1047.89 290.758 1047.89 293.344ZM1061.75 296.281C1061.76 294.93 1062.65 293.773 1064.24 293.781C1065.86 293.773 1066.72 294.922 1066.72 296.281V296.875C1066.72 298.227 1065.83 299.383 1064.24 299.391C1062.63 299.383 1061.76 298.227 1061.75 296.875V296.281ZM1055.96 290.406V289.812C1055.96 288.445 1056.86 287.297 1058.44 287.297C1060.06 287.297 1060.92 288.445 1060.91 289.812V290.406C1060.92 291.766 1060.04 292.898 1058.44 292.891C1056.82 292.898 1055.96 291.75 1055.96 290.406ZM1056.68 299L1064.46 287.688H1065.9L1058.11 299H1056.68ZM1057.55 290.406C1057.56 290.945 1057.78 291.5 1058.44 291.5C1059.11 291.5 1059.32 290.945 1059.32 290.406V289.812C1059.32 289.266 1059.14 288.695 1058.44 288.703C1057.77 288.695 1057.56 289.273 1057.55 289.812V290.406ZM1063.35 296.875C1063.35 297.406 1063.56 297.977 1064.24 297.969C1064.91 297.977 1065.12 297.422 1065.11 296.875V296.281C1065.12 295.742 1064.93 295.172 1064.24 295.172C1063.57 295.172 1063.35 295.742 1063.35 296.281V296.875ZM1082.13 286.188V289.281H1084.05V290.875H1082.13V293.891H1080.13V286.188H1082.13ZM1070.85 288.797V287.281H1074.09V286.125H1076.07V287.281H1079.29V288.797H1070.85ZM1071.54 291.469C1071.54 290.047 1072.95 289.148 1075.07 289.141C1077.2 289.148 1078.57 290.047 1078.57 291.469C1078.57 292.922 1077.2 293.789 1075.07 293.797C1072.95 293.789 1071.54 292.922 1071.54 291.469ZM1072.7 295.906V294.469H1082.13V298.062H1074.68V298.875H1082.54V300.344H1072.73V296.703H1080.15V295.906H1072.7ZM1073.49 291.469C1073.48 292.078 1074.09 292.367 1075.07 292.375C1076.06 292.367 1076.68 292.078 1076.68 291.469C1076.68 290.867 1076.06 290.539 1075.07 290.547C1074.09 290.539 1073.48 290.867 1073.49 291.469ZM1095.99 286.234V296.453H1093.99V286.234H1095.99ZM1084.3 290.719C1084.3 288.633 1086 287.133 1088.19 287.141C1090.37 287.133 1092.07 288.633 1092.08 290.719C1092.07 292.836 1090.37 294.328 1088.19 294.328C1086 294.328 1084.3 292.836 1084.3 290.719ZM1086.25 290.719C1086.24 291.906 1087.07 292.594 1088.19 292.594C1089.27 292.594 1090.1 291.906 1090.11 290.719C1090.1 289.562 1089.27 288.867 1088.19 288.875C1087.07 288.867 1086.24 289.562 1086.25 290.719ZM1086.45 300.188V295.422H1088.47V298.594H1096.36V300.188H1086.45ZM1112.07 287.406V288.672C1112.06 290.383 1112.09 292.398 1111.43 295.469L1109.47 295.266C1109.71 294.188 1109.86 293.227 1109.95 292.359L1101.69 292.828L1101.41 291.125L1110.07 290.844C1110.11 290.172 1110.11 289.562 1110.11 289H1101.88V287.406H1112.07ZM1100.4 298.797V297.172H1105.04V293.734H1107.02V297.172H1113.36V298.797H1100.4ZM1125.22 292.797V294.391H1115.15V287.406H1125.11V289.016H1117.12V292.797H1125.22ZM1113.62 298.703V297.062H1126.64V298.703H1113.62ZM1139.74 292.751V293.89H1126.93V292.751H1139.74ZM1128.45 295.939V294.867H1138.16V297.956H1129.94V299.11H1138.6V300.16H1128.46V296.967H1136.69V295.939H1128.45ZM1128.53 287.735V286.691H1138.13V289.718H1130.04V290.785H1138.37V291.829H1128.57V288.74H1136.65V287.735H1128.53ZM1150.58 291.238V293.193H1156.25V294.387H1143.48V293.193H1149.12V291.238H1150.58ZM1144.21 290.834C1146.9 290.481 1149.1 288.906 1149.1 287.138V286.547H1150.6V287.138C1150.6 288.928 1152.79 290.481 1155.5 290.834L1154.91 292.006C1152.69 291.646 1150.74 290.564 1149.85 289.022C1148.95 290.569 1147 291.646 1144.76 292.006L1144.21 290.834ZM1144.99 297.873C1144.99 296.304 1146.81 295.42 1149.85 295.42C1152.88 295.42 1154.68 296.304 1154.69 297.873C1154.68 299.436 1152.88 300.304 1149.85 300.304C1146.81 300.304 1144.99 299.436 1144.99 297.873ZM1146.5 297.873C1146.49 298.713 1147.69 299.177 1149.85 299.166C1151.99 299.177 1153.2 298.713 1153.21 297.873C1153.2 297.022 1151.99 296.569 1149.85 296.569C1147.69 296.569 1146.49 297.022 1146.5 297.873ZM1169.5 294.558V295.74H1163.79V300.326H1162.33V295.74H1156.69V294.558H1169.5ZM1158.29 292.972V286.895H1159.76V288.718H1166.42V286.895H1167.9V292.972H1158.29ZM1159.76 291.779H1166.42V289.906H1159.76V291.779ZM1181.28 292.972V294.182H1171.53V287.586H1181.16V288.801H1172.99V292.972H1181.28ZM1169.94 298.481V297.249H1182.75V298.481H1169.94ZM1194.78 286.337V294.061H1193.29V286.337H1194.78ZM1183.87 288.199V287H1190.31V290.906H1185.35V292.558C1187.8 292.547 1189.6 292.497 1191.73 292.138L1191.91 293.348C1189.63 293.718 1187.72 293.785 1185.07 293.79H1183.9V289.757H1188.84V288.199H1183.87ZM1185.58 300.149V294.724H1187.07V296.238H1193.31V294.724H1194.78V300.149H1185.58ZM1187.07 298.945H1193.31V297.403H1187.07V298.945ZM1208.01 286.326V300.326H1206.54V286.326H1208.01ZM1197.25 296.768V287.691H1198.71V295.492C1200.76 295.475 1202.91 295.304 1205.16 294.84L1205.36 296.088C1202.88 296.602 1200.63 296.773 1198.42 296.768H1197.25ZM1220.53 286.326V291.746H1222.77V292.978H1220.53V300.354H1219.04V286.326H1220.53ZM1210.22 296.878V287.674H1216.76V288.878H1211.7V295.641C1214.04 295.63 1215.81 295.53 1217.81 295.166L1217.99 296.431C1215.8 296.812 1213.94 296.884 1211.34 296.878H1210.22ZM1224.44 299.105C1223.83 299.105 1223.32 298.608 1223.33 298C1223.32 297.392 1223.83 296.895 1224.44 296.895C1225.04 296.895 1225.55 297.392 1225.55 298C1225.55 298.608 1225.04 299.105 1224.44 299.105Z" fill="white"/>
<path d="M856.606 78.2812V80.7188H837.083V78.2812H845.333V74.1094H848.309V78.2812H856.606ZM837.739 72.5156C842.602 71.9297 845.016 69.5156 845.286 67.1484H838.77V64.7578H845.333V62.0859H848.309V64.7578H854.895V67.1484H848.38C848.626 69.5156 851.052 71.9297 855.903 72.5156L854.825 74.8359C851.005 74.3438 848.251 72.7617 846.809 70.5586C845.391 72.7617 842.649 74.3438 838.841 74.8359L837.739 72.5156ZM875.155 61.8281V83.1562H872.131V61.8281H875.155ZM857.295 77.1094C862.803 74.5078 865.229 71.1328 865.709 66.3984H858.444V64.0547H868.756C868.745 70.5234 866.483 75.9023 858.866 79.5L857.295 77.1094ZM890.15 66.6562C890.138 70.4766 891.767 74.332 895.189 75.9844L893.384 78.375C891.099 77.2383 889.552 75.1289 888.673 72.5625C887.736 75.3164 886.095 77.5781 883.681 78.7734L881.83 76.3594C885.451 74.6953 887.15 70.6172 887.15 66.6562V63.4688H890.15V66.6562ZM896.127 83.1562V61.8281H899.127V70.0547H902.267V72.5859H899.127V83.1562H896.127ZM921.894 71.9297V74.3203H902.441V71.9297H906.823V69.375C905.265 68.6836 904.386 67.6289 904.386 66.2578C904.386 63.6797 907.421 62.1445 912.167 62.1328C916.878 62.1445 919.913 63.6797 919.925 66.2578C919.913 67.6523 919.011 68.7188 917.417 69.3984V71.9297H921.894ZM904.667 79.2656C904.667 76.8047 907.468 75.4336 912.144 75.4453C916.749 75.4336 919.55 76.8047 919.573 79.2656C919.55 81.7852 916.749 83.1328 912.144 83.1328C907.468 83.1328 904.667 81.7852 904.667 79.2656ZM907.503 66.2578C907.48 67.4297 909.155 68.0273 912.167 68.0156C915.144 68.0273 916.831 67.4297 916.831 66.2578C916.831 65.0625 915.144 64.4297 912.167 64.4297C909.155 64.4297 907.48 65.0625 907.503 66.2578ZM907.714 79.2656C907.702 80.3555 909.191 80.9062 912.144 80.9062C915.038 80.9062 916.562 80.3555 916.573 79.2656C916.562 78.2109 915.038 77.707 912.144 77.6953C909.191 77.707 907.702 78.2109 907.714 79.2656ZM909.847 71.9297H914.441V70.1367C913.737 70.2305 912.976 70.2656 912.167 70.2656C911.335 70.2656 910.562 70.2188 909.847 70.1367V71.9297ZM930.458 67.6406C930.446 70.8867 932.18 74.6367 935.684 76.2656L934.02 78.6094C931.641 77.5195 929.954 75.3398 928.993 72.7852C928.044 75.5977 926.286 77.9883 923.825 79.1484L922.091 76.7812C925.641 75.1289 927.434 71.168 927.458 67.6406V66.3281H922.934V63.8906H934.747V66.3281H930.458V67.6406ZM936.411 83.1562V61.8281H939.411V69.9609H942.552V72.4688H939.411V83.1562H936.411ZM967.18 78.1875V80.6719H947.656V78.1875H967.18ZM949.18 66.0938V63.7031H965.539V66.0938H962.539V72.5625H965.445V74.9062H949.273V72.5625H952.133V66.0938H949.18ZM955.133 72.5625H959.586V66.0938H955.133V72.5625ZM987.322 78.3281V80.7891H967.798V78.3281H976.025V75.1172H970.048V67.9453H982.119V65.6016H970.025V63.2109H985.072V70.2891H973.048V72.6797H985.564V75.1172H979.002V78.3281H987.322ZM1007.46 78.2109V80.6719H987.941V78.2109H996.167V73.8516H990.003V63.3984H1005.28V73.8516H999.144V78.2109H1007.46ZM992.956 71.5078H1002.33V65.7891H992.956V71.5078ZM1016.07 65.5078C1016.07 68.4609 1017.54 71.3789 1020.9 72.6328L1019.24 74.9531C1017 74.0742 1015.47 72.3867 1014.59 70.2891C1013.66 72.5273 1012.01 74.2969 1009.58 75.2109L1007.99 72.8672C1011.49 71.625 1013.04 68.6367 1013.05 65.5078V63.0469H1016.07V65.5078ZM1011.86 82.7812V76.1484H1014.88V80.3906H1026.5V82.7812H1011.86ZM1019.43 71.1562V68.7422H1023.08V67.0312H1019.43V64.6172H1023.08V61.8516H1026.06V77.6719H1023.08V71.1562H1019.43ZM1051.02 61.8281V83.2031H1047.99V61.8281H1051.02ZM1033.79 70.9219C1033.78 66.2695 1036.16 63.3281 1039.44 63.3281C1042.65 63.3281 1045.04 66.2695 1045.04 70.9219C1045.04 75.6094 1042.65 78.5391 1039.44 78.5391C1036.16 78.5391 1033.78 75.6094 1033.79 70.9219ZM1036.67 70.9219C1036.66 74.0977 1037.77 75.832 1039.44 75.8203C1041.05 75.832 1042.14 74.0977 1042.16 70.9219C1042.14 67.7578 1041.05 66.0234 1039.44 66.0234C1037.77 66.0234 1036.66 67.7578 1036.67 70.9219ZM1071.63 61.8281V77.9531H1068.79V61.8281H1071.63ZM1054.05 74.25V63.4688H1056.88V66.7266H1059.79V63.4688H1062.56V67.7344H1064.48V62.1562H1067.29V77.2734H1064.48V70.125H1062.56V74.25H1054.05ZM1056.88 71.8359H1059.79V69H1056.88V71.8359ZM1057.17 82.7812V75.8203H1060.17V80.3906H1072.17V82.7812H1057.17ZM1090.83 72.8438V75.2109H1075.74V63.3984H1090.67V65.8125H1078.78V68.0625H1090.18V70.4062H1078.78V72.8438H1090.83ZM1073.44 80.6719V78.2344H1092.96V80.6719H1073.44Z" fill="#D6FF01"/>
<path d="M960.175 45.2344C955.921 45.2344 953.355 42.0703 953.355 36.5156C953.355 30.9727 955.945 27.7969 960.175 27.7969C964.405 27.7969 966.995 30.9727 966.995 36.5156C966.995 42.0938 964.417 45.2344 960.175 45.2344ZM956.964 36.5156C956.941 40.4297 958.206 42.3281 960.175 42.3281C962.144 42.3281 963.398 40.4297 963.386 36.5156C963.398 32.6367 962.132 30.6914 960.175 30.6797C958.218 30.6914 956.964 32.6367 956.964 36.5156ZM976.145 28.0312V45H972.606V31.3828H972.512L968.622 33.8203V30.7031L972.817 28.0312H976.145Z" fill="#D6FF01"/>
<path d="M1056.67 135H952.171C951.512 135 950.87 135.2 950.333 135.573C949.796 135.946 949.391 136.473 949.175 137.081C948.734 138.326 947.907 139.405 946.809 140.17C945.711 140.934 944.397 141.344 943.05 141.344C941.702 141.344 940.388 140.934 939.291 140.17C938.193 139.405 937.366 138.326 936.925 137.081C936.709 136.475 936.306 135.95 935.771 135.577C935.237 135.204 934.598 135.003 933.941 135H878.193C878.193 136.437 877.904 137.86 877.341 139.188C876.779 140.516 875.954 141.722 874.915 142.738C873.875 143.754 872.641 144.56 871.283 145.11C869.925 145.66 868.47 145.943 867 145.943V213.08C868.47 213.079 869.925 213.362 871.283 213.912C872.641 214.462 873.875 215.268 874.915 216.284C875.954 217.3 876.779 218.506 877.341 219.834C877.904 221.162 878.193 222.585 878.193 224.022H933.941C934.6 224.023 935.242 223.823 935.779 223.45C936.316 223.077 936.721 222.55 936.937 221.941C937.378 220.696 938.205 219.617 939.303 218.853C940.401 218.088 941.715 217.678 943.062 217.678C944.41 217.678 945.724 218.088 946.822 218.853C947.919 219.617 948.746 220.696 949.187 221.941C949.403 222.547 949.806 223.073 950.341 223.446C950.875 223.818 951.515 224.02 952.171 224.022H1056.66C1056.66 222.585 1056.95 221.162 1057.51 219.835C1058.08 218.507 1058.9 217.301 1059.94 216.285C1060.98 215.268 1062.21 214.462 1063.57 213.913C1064.93 213.363 1066.38 213.08 1067.85 213.08V145.943C1064.89 145.941 1062.04 144.787 1059.94 142.735C1057.85 140.683 1056.67 137.901 1056.67 135V135ZM942.518 144.517C942.514 144.445 942.524 144.373 942.55 144.305C942.575 144.237 942.614 144.174 942.664 144.122C942.715 144.069 942.776 144.027 942.844 143.998C942.912 143.97 942.985 143.955 943.059 143.955C943.133 143.955 943.206 143.97 943.274 143.998C943.342 144.027 943.403 144.069 943.454 144.122C943.505 144.174 943.544 144.237 943.569 144.305C943.594 144.373 943.605 144.445 943.6 144.517V150.65C943.605 150.723 943.594 150.795 943.569 150.863C943.544 150.931 943.505 150.993 943.454 151.046C943.403 151.099 943.342 151.141 943.274 151.17C943.206 151.198 943.133 151.213 943.059 151.213C942.985 151.213 942.912 151.198 942.844 151.17C942.776 151.141 942.715 151.099 942.664 151.046C942.614 150.993 942.575 150.931 942.55 150.863C942.524 150.795 942.514 150.723 942.518 150.65V144.517ZM942.518 155.021C942.514 154.949 942.524 154.877 942.55 154.809C942.575 154.741 942.614 154.678 942.664 154.626C942.715 154.573 942.776 154.531 942.844 154.502C942.912 154.474 942.985 154.459 943.059 154.459C943.133 154.459 943.206 154.474 943.274 154.502C943.342 154.531 943.403 154.573 943.454 154.626C943.505 154.678 943.544 154.741 943.569 154.809C943.594 154.877 943.605 154.949 943.6 155.021V161.154C943.6 161.259 943.569 161.361 943.509 161.448C943.45 161.535 943.366 161.603 943.267 161.643C943.168 161.683 943.06 161.693 942.955 161.673C942.85 161.652 942.754 161.602 942.678 161.528C942.627 161.479 942.587 161.421 942.56 161.357C942.532 161.293 942.518 161.224 942.518 161.154V155.021ZM942.518 165.525C942.514 165.453 942.524 165.381 942.55 165.313C942.575 165.245 942.614 165.182 942.664 165.13C942.715 165.077 942.776 165.035 942.844 165.006C942.912 164.978 942.985 164.963 943.059 164.963C943.133 164.963 943.206 164.978 943.274 165.006C943.342 165.035 943.403 165.077 943.454 165.13C943.505 165.182 943.544 165.245 943.569 165.313C943.594 165.381 943.605 165.453 943.6 165.525V171.658C943.6 171.763 943.569 171.865 943.509 171.952C943.45 172.039 943.366 172.107 943.267 172.147C943.168 172.187 943.06 172.197 942.955 172.177C942.85 172.156 942.754 172.106 942.678 172.032C942.627 171.983 942.587 171.925 942.56 171.861C942.532 171.797 942.518 171.728 942.518 171.658V165.525ZM942.518 176.029C942.518 175.889 942.575 175.754 942.677 175.655C942.779 175.555 942.917 175.499 943.06 175.499C943.131 175.499 943.202 175.513 943.268 175.54C943.333 175.567 943.393 175.606 943.442 175.656C943.493 175.705 943.532 175.763 943.559 175.827C943.586 175.891 943.6 175.96 943.6 176.029V182.162C943.6 182.302 943.543 182.436 943.441 182.535C943.34 182.634 943.203 182.69 943.06 182.69C942.917 182.689 942.78 182.633 942.679 182.535C942.578 182.436 942.52 182.302 942.518 182.162V176.029ZM942.518 186.533C942.514 186.461 942.524 186.389 942.55 186.321C942.575 186.253 942.614 186.19 942.664 186.138C942.715 186.085 942.776 186.043 942.844 186.014C942.912 185.986 942.985 185.971 943.059 185.971C943.133 185.971 943.206 185.986 943.274 186.014C943.342 186.043 943.403 186.085 943.454 186.138C943.505 186.19 943.544 186.253 943.569 186.321C943.594 186.389 943.605 186.461 943.6 186.533V192.666C943.6 192.771 943.569 192.873 943.509 192.96C943.45 193.047 943.366 193.115 943.267 193.155C943.168 193.195 943.06 193.205 942.955 193.185C942.85 193.164 942.754 193.114 942.678 193.04C942.627 192.991 942.587 192.933 942.56 192.869C942.532 192.805 942.518 192.736 942.518 192.666V186.533ZM943.6 213.672C943.6 213.813 943.543 213.947 943.442 214.046C943.341 214.146 943.204 214.202 943.06 214.202C942.917 214.201 942.78 214.145 942.678 214.046C942.577 213.947 942.519 213.813 942.518 213.672V207.539C942.514 207.467 942.524 207.395 942.55 207.327C942.575 207.259 942.614 207.196 942.664 207.144C942.715 207.091 942.776 207.049 942.844 207.02C942.912 206.991 942.985 206.977 943.059 206.977C943.133 206.977 943.206 206.991 943.274 207.02C943.342 207.049 943.403 207.091 943.454 207.144C943.505 207.196 943.544 207.259 943.569 207.327C943.594 207.395 943.605 207.467 943.6 207.539V213.672ZM943.6 203.17C943.6 203.275 943.569 203.377 943.509 203.464C943.45 203.551 943.366 203.619 943.267 203.659C943.168 203.699 943.06 203.709 942.955 203.689C942.85 203.668 942.754 203.618 942.678 203.544L942.662 203.528C942.57 203.43 942.519 203.303 942.518 203.17V197.037C942.518 196.933 942.55 196.83 942.61 196.743C942.669 196.656 942.753 196.588 942.852 196.548C942.951 196.508 943.06 196.497 943.165 196.518C943.27 196.538 943.366 196.588 943.442 196.662C943.536 196.754 943.592 196.877 943.598 197.007C943.599 197.017 943.599 197.027 943.598 197.037L943.6 203.17Z" fill="#DDEB97"/>
<path d="M961.289 201L975.74 172.616V172.392H958.855V165.641H984.373V172.426L969.87 201H961.289ZM1000.09 201.846C990.905 201.829 985.26 195.009 985.277 183.372C985.312 171.753 990.923 165.157 1000.09 165.157C1009.26 165.157 1014.92 171.77 1014.9 183.372C1014.89 195.044 1009.28 201.863 1000.09 201.846ZM993.841 183.372C993.806 191.228 996.344 195.009 1000.09 195.009C1003.85 195.009 1006.36 191.228 1006.36 183.372C1006.34 175.637 1003.84 171.943 1000.09 171.943C996.344 171.943 993.858 175.637 993.841 183.372ZM1036.8 192.506C1036.8 188.172 1039.69 184.443 1044.81 184.443C1050.06 184.443 1052.86 188.12 1052.86 192.506V194.37C1052.86 198.704 1049.99 202.433 1044.81 202.433C1039.62 202.433 1036.8 198.704 1036.8 194.37V192.506ZM1018.52 174.135V172.271C1018.52 167.885 1021.46 164.208 1026.51 164.208C1031.78 164.208 1034.56 167.885 1034.56 172.271V174.135C1034.56 178.521 1031.71 182.146 1026.51 182.146C1021.32 182.146 1018.52 178.469 1018.52 174.135ZM1021.06 201L1045.37 165.641H1050.05L1025.74 201H1021.06ZM1023.98 174.135C1023.98 175.689 1024.6 177.329 1026.51 177.329C1028.55 177.329 1029.1 175.689 1029.1 174.135V172.271C1029.1 170.717 1028.62 169.025 1026.51 169.025C1024.56 169.025 1023.98 170.769 1023.98 172.271V174.135ZM1042.23 194.37C1042.23 195.872 1042.83 197.564 1044.81 197.564C1046.84 197.564 1047.39 195.924 1047.39 194.37V192.506C1047.39 190.952 1046.9 189.26 1044.81 189.26C1042.85 189.26 1042.23 190.952 1042.23 192.506V194.37Z" fill="#171717"/>
<defs>
<linearGradient id="paint0_linear_225_2046" x1="960" y1="0" x2="960" y2="497" gradientUnits="userSpaceOnUse">
<stop stop-color="#0D0D0D"/>
<stop offset="1" stop-color="#171717"/>
</linearGradient>
</defs>
</svg>
